# xmcd CD database file
#
# Track frame offsets:
#	182
#	19282
#	46302
#	64980
#	80220
#	99692
#	122725
#	137332
#	157950
#	172032
#	192697
#	209120
#	229280
#	250962
#	267537
#
# Disc length: 3805 seconds
#
# Revision: 0
# Processed by: cddbd v1.5.2PL0 Copyright (c) Steve Scherf et al.
# Submitted via: CDex 1.70beta2
#
DISCID=ea0edb0f
DTITLE=Chicago blues festival - Chicago blues festival vol 5
DYEAR=1993
DGENRE=Blues
TTITLE0=Buster Benton - The best piece of chicken i ever had i stole it
TTITLE1=Buster Benton - Money is the name of the game
TTITLE2=Lafayette Leake - Memories of Jimmy
TTITLE3=Lafayette Leake - If you're not mine
TTITLE4=Jimmy Johnson - heap see
TTITLE5=Jimmy Johnson - When my first wife quit me
TTITLE6=Billy Boy Arnold - My babe
TTITLE7=John "Mad dog" Watkins - The same thing
TTITLE8=Larry Davis - I tried
TTITLE9=Byther Smith - A dressing the nation with the blues
TTITLE10=A.C Reed - This little voice
TTITLE11=Maurice Vaughn - Mojo hand
TTITLE12=Little Joe Blue - You're breacking my heart
TTITLE13=Eddie Burns - In the state highway
TTITLE14=Eddie Burns - This old house
EXTD=YEAR: 1993
EXTT0=
EXTT1=
EXTT2=
EXTT3=
EXTT4=
EXTT5=
EXTT6=
EXTT7=
EXTT8=
EXTT9=
EXTT10=
EXTT11=
EXTT12=
EXTT13=
EXTT14=
PLAYORDER=
